# xmcd
#
# Track frame offsets: 
#        225
#        19382
#        34370
#        52797
#        69522
#        97912
#        111920
#        132267
#        151640
#        162217
#
# Disc length: 2471 seconds
#
# Revision: 5
# Processed by: cddbd v1.5.2PL0 Copyright (c) Steve Scherf et al.
# Submitted via: ExactAudioCopy v0.95a5
#
DISCID=7809a40a
DTITLE=Alice Cooper - Billion Dollar Babies
DYEAR=1973
DGENRE=Hard Rock
TTITLE0=Hello Hooray
TTITLE1=Raped And Freezin'
TTITLE2=Elected
TTITLE3=Billion Dollar Babies
TTITLE4=Unfinished Sweet
TTITLE5=No More Mr. Nice Guy
TTITLE6=Generation Landslide
TTITLE7=Sick Things
TTITLE8=Mary Ann
TTITLE9=I Love The Dead
EXTD=YEAR: 1973
EXTT0=
EXTT1=
EXTT2=
EXTT3=
EXTT4=
EXTT5=
EXTT6=
EXTT7=
EXTT8=
EXTT9=
PLAYORDER=
